<svg fill="#000000" xmlns="http://www.w3.org/2000/svg" viewBox="0 0 64 64" width="64px" height="64px"><path d="M32,46c7.72,0,14-6.28,14-14s-6.28-14-14-14s-14,6.28-14,14S24.28,46,32,46z M32,20c6.617,0,12,5.383,12,12s-5.383,12-12,12s-12-5.383-12-12S25.383,20,32,20z"/><path d="M32 42c5.514 0 10-4.486 10-10s-4.486-10-10-10-10 4.486-10 10S26.486 42 32 42zM32 24c4.411 0 8 3.589 8 8s-3.589 8-8 8-8-3.589-8-8S27.589 24 32 24zM48 13c-1.654 0-3 1.346-3 3s1.346 3 3 3 3-1.346 3-3S49.654 13 48 13zM48 17.469c-.81 0-1.469-.659-1.469-1.469S47.19 14.531 48 14.531 49.469 15.19 49.469 16 48.81 17.469 48 17.469z"/><path d="M51,6H13c-3.86,0-7,3.14-7,7v38c0,3.86,3.14,7,7,7h38c3.86,0,7-3.14,7-7V13C58,9.14,54.86,6,51,6z M56,51c0,2.757-2.243,5-5,5H13c-2.757,0-5-2.243-5-5V13c0-2.757,2.243-5,5-5h38c2.757,0,5,2.243,5,5V51z"/><path d="M17 49c-.552 0-1 .448-1 1v2c0 .552.448 1 1 1s1-.448 1-1v-2C18 49.448 17.552 49 17 49zM12 49c-.552 0-1 .448-1 1v2c0 .552.448 1 1 1s1-.448 1-1v-2C13 49.448 12.552 49 12 49zM32 49c-.552 0-1 .448-1 1v2c0 .552.448 1 1 1s1-.448 1-1v-2C33 49.448 32.552 49 32 49zM37 49c-.552 0-1 .448-1 1v2c0 .552.448 1 1 1s1-.448 1-1v-2C38 49.448 37.552 49 37 49zM42 49c-.552 0-1 .448-1 1v2c0 .552.448 1 1 1s1-.448 1-1v-2C43 49.448 42.552 49 42 49zM47 49c-.552 0-1 .448-1 1v2c0 .552.448 1 1 1s1-.448 1-1v-2C48 49.448 47.552 49 47 49zM52 49c-.552 0-1 .448-1 1v2c0 .552.448 1 1 1s1-.448 1-1v-2C53 49.448 52.552 49 52 49zM22 49c-.552 0-1 .448-1 1v2c0 .552.448 1 1 1s1-.448 1-1v-2C23 49.448 22.552 49 22 49zM27 49c-.552 0-1 .448-1 1v2c0 .552.448 1 1 1s1-.448 1-1v-2C28 49.448 27.552 49 27 49z"/></svg>