<svg fill="#000000" xmlns="http://www.w3.org/2000/svg" viewBox="0 0 64 64" width="64px" height="64px"><path d="M23 28h-7c-.553 0-1 .448-1 1v22c0 .552.447 1 1 1h7c.553 0 1-.448 1-1V29C24 28.448 23.553 28 23 28zM22 50h-5V30h5V50zM39.875 27.438c-2.317 0-4.147.816-5.441 1.876v-.341c0-.552-.447-1-1-1h-6.433c-.553 0-1 .448-1 1V51c0 .552.447 1 1 1h6.702c.553 0 1-.448 1-1V39.886c0-3.313.82-4.545 3.025-4.545 2.127 0 2.486 1.458 2.486 4.725V51c0 .552.447 1 1 1h6.71c.553 0 1-.448 1-1V38.724C48.925 33.143 47.85 27.438 39.875 27.438zM46.925 50h-4.71v-9.935c0-2.35 0-6.725-4.486-6.725-5.025 0-5.025 4.926-5.025 6.545V50h-4.702V29.973h4.433v1.952c0 .552.539 1 1.092 1 .371 0 .712-.206.885-.534.718-1.363 2.58-2.954 5.465-2.954 5.87 0 7.05 3.553 7.05 9.286V50zM19.5 18c-2.481 0-4.5 2.019-4.5 4.5s2.019 4.5 4.5 4.5 4.5-2.019 4.5-4.5S21.981 18 19.5 18zM19.5 25.328c-1.56 0-2.828-1.269-2.828-2.828s1.268-2.828 2.828-2.828 2.828 1.269 2.828 2.828S21.06 25.328 19.5 25.328z"/><path d="M51,6H13c-3.859,0-7,3.14-7,7v38c0,3.86,3.141,7,7,7h38c3.859,0,7-3.14,7-7V13C58,9.14,54.859,6,51,6z M56,51c0,2.757-2.243,5-5,5H13c-2.757,0-5-2.243-5-5V13c0-2.757,2.243-5,5-5h38c2.757,0,5,2.243,5,5V51z"/><path d="M17 16c.553 0 1-.448 1-1v-2c0-.552-.447-1-1-1s-1 .448-1 1v2C16 15.552 16.447 16 17 16zM12 12c-.553 0-1 .448-1 1v2c0 .552.447 1 1 1s1-.448 1-1v-2C13 12.448 12.553 12 12 12zM32 16c.553 0 1-.448 1-1v-2c0-.552-.447-1-1-1s-1 .448-1 1v2C31 15.552 31.447 16 32 16zM37 16c.553 0 1-.448 1-1v-2c0-.552-.447-1-1-1s-1 .448-1 1v2C36 15.552 36.447 16 37 16zM42 16c.553 0 1-.448 1-1v-2c0-.552-.447-1-1-1s-1 .448-1 1v2C41 15.552 41.447 16 42 16zM47 16c.553 0 1-.448 1-1v-2c0-.552-.447-1-1-1s-1 .448-1 1v2C46 15.552 46.447 16 47 16zM52 12c-.553 0-1 .448-1 1v2c0 .552.447 1 1 1s1-.448 1-1v-2C53 12.448 52.553 12 52 12zM22 16c.553 0 1-.448 1-1v-2c0-.552-.447-1-1-1s-1 .448-1 1v2C21 15.552 21.447 16 22 16zM27 16c.553 0 1-.448 1-1v-2c0-.552-.447-1-1-1s-1 .448-1 1v2C26 15.552 26.447 16 27 16z"/></svg>