<svg fill="#000000" xmlns="http://www.w3.org/2000/svg" viewBox="0 0 64 64" width="64px" height="64px"><path d="M51,6H13c-3.86,0-7,3.141-7,7v38c0,3.859,3.14,7,7,7h38c3.86,0,7-3.141,7-7V13C58,9.141,54.86,6,51,6z M56,51c0,2.757-2.243,5-5,5H13c-2.757,0-5-2.243-5-5V13c0-2.757,2.243-5,5-5h38c2.757,0,5,2.243,5,5V51z"/><path d="M17 16c.552 0 1-.447 1-1v-2c0-.553-.448-1-1-1s-1 .447-1 1v2C16 15.553 16.448 16 17 16zM12 12c-.552 0-1 .447-1 1v2c0 .553.448 1 1 1s1-.447 1-1v-2C13 12.447 12.552 12 12 12zM32 16c.552 0 1-.447 1-1v-2c0-.553-.448-1-1-1s-1 .447-1 1v2C31 15.553 31.448 16 32 16zM37 16c.552 0 1-.447 1-1v-2c0-.553-.448-1-1-1s-1 .447-1 1v2C36 15.553 36.448 16 37 16zM42 16c.552 0 1-.447 1-1v-2c0-.553-.448-1-1-1s-1 .447-1 1v2C41 15.553 41.448 16 42 16zM47 16c.552 0 1-.447 1-1v-2c0-.553-.448-1-1-1s-1 .447-1 1v2C46 15.553 46.448 16 47 16zM52 12c-.552 0-1 .447-1 1v2c0 .553.448 1 1 1s1-.447 1-1v-2C53 12.447 52.552 12 52 12zM22 16c.552 0 1-.447 1-1v-2c0-.553-.448-1-1-1s-1 .447-1 1v2C21 15.553 21.448 16 22 16zM27 16c.552 0 1-.447 1-1v-2c0-.553-.448-1-1-1s-1 .447-1 1v2C26 15.553 26.448 16 27 16zM49.489 24.12c-.226.1-.455.194-.686.281.401-.601.72-1.258.944-1.955.111-.347-.004-.727-.289-.954-.285-.227-.68-.254-.994-.068-1.146.68-2.379 1.176-3.672 1.479-1.44-1.346-3.358-2.109-5.339-2.109-4.306 0-7.809 3.503-7.809 7.807 0 .207.008.413.024.619-4.898-.532-9.433-2.984-12.571-6.834-.181-.224-.46-.344-.748-.321-.287.022-.545.184-.689.433-.692 1.188-1.058 2.545-1.058 3.926 0 1.468.409 2.877 1.153 4.089-.25-.103-.534-.085-.771.053-.267.154-.434.438-.438.746 0 .004 0 .096 0 .1 0 2.438 1.14 4.665 2.952 6.111-.114.051-.217.125-.302.221-.205.232-.273.555-.178.849.776 2.423 2.659 4.264 4.988 5.032-1.913 1.052-4.052 1.601-6.286 1.601-.532 0-1.053-.03-1.549-.09-.409-.051-.793.19-.93.575-.138.385.008.814.352 1.035C18.909 48.875 22.746 50 26.688 50c7.746 0 12.594-3.655 15.297-6.722 3.367-3.821 5.298-8.877 5.298-13.874 0-.156-.002-.312-.006-.467 1.281-.984 2.389-2.169 3.297-3.528.217-.324.194-.753-.058-1.052C50.265 24.058 49.846 23.962 49.489 24.12zM45.872 27.796c-.24.172-.377.455-.364.751.013.284.021.569.021.857 0 11.793-9.579 18.841-18.841 18.841-2.442 0-4.84-.472-7.076-1.381 2.645-.333 5.123-1.365 7.254-3.034.292-.229.409-.617.291-.969s-.445-.592-.816-.599c-2.118-.039-4.023-1.174-5.08-2.935.659-.009 1.314-.1 1.949-.272.393-.106.661-.469.647-.876-.014-.407-.305-.751-.704-.831-2.361-.475-4.179-2.311-4.702-4.632.674.211 1.376.331 2.082.353.394.03.744-.236.863-.608.12-.373-.022-.78-.348-.997-1.687-1.128-2.693-3.011-2.693-5.039 0-.641.102-1.276.298-1.879 3.637 3.89 8.666 6.245 14.004 6.513.285.016.541-.103.717-.313.177-.212.244-.494.182-.762-.105-.448-.157-.913-.157-1.381 0-3.337 2.716-6.053 6.054-6.053 1.667 0 3.278.697 4.418 1.912.208.22.513.318.81.26.716-.141 1.418-.334 2.101-.578-.395.433-.855.809-1.367 1.116-.355.213-.513.644-.38 1.036.134.392.523.638.934.588.422-.051.84-.118 1.254-.204C46.799 27.081 46.348 27.453 45.872 27.796z"/></svg>