<?xml version="1.0" encoding="UTF-8"?>
<svg xmlns="http://www.w3.org/2000/svg" xmlns:xlink="http://www.w3.org/1999/xlink" width="96pt" height="96pt" viewBox="0 0 96 96" version="1.1">
<g id="surface540732">
<path style=" stroke:none;fill-rule:nonzero;fill:rgb(60.784314%,34.901961%,71.372549%);fill-opacity:1;" d="M 0 30 L 96 30 L 96 64 L 48 64 L 48 70 L 26 70 L 26 64 L 0 64 Z M 0 30 "/>
<path style=" stroke:none;fill-rule:nonzero;fill:rgb(100%,100%,100%);fill-opacity:1;" d="M 6 58 L 16 58 L 16 42 L 22 42 L 22 58 L 26 58 L 26 36 L 6 36 Z M 32 36 L 32 64 L 42 64 L 42 58 L 52 58 L 52 36 Z M 48 52 L 42 52 L 42 42 L 48 42 Z M 58 36 L 58 58 L 68 58 L 68 42 L 74 42 L 74 58 L 80 58 L 80 42 L 86 42 L 86 58 L 90 58 L 90 36 Z M 58 36 "/>
</g>
</svg>
